<?xml version="1.0" standalone="no"?>
<!DOCTYPE svg PUBLIC "-//W3C//DTD SVG 20010904//EN"
 "http://www.w3.org/TR/2001/REC-SVG-20010904/DTD/svg10.dtd">
<svg version="1.0" xmlns="http://www.w3.org/2000/svg"
 width="1080.000000pt" height="1080.000000pt" viewBox="0 0 1080.000000 1080.000000"
 preserveAspectRatio="xMidYMid meet">
<metadata>
Created by potrace 1.15, written by Peter Selinger 2001-2017
</metadata>
<g transform="translate(0.000000,1080.000000) scale(0.100000,-0.100000)"
fill="#000000" stroke="none">
<path d="M1875 7596 c-48 -21 -97 -84 -172 -222 -455 -832 -606 -1808 -427
-2753 213 -1128 901 -2127 1887 -2743 164 -103 470 -257 642 -325 444 -175
837 -260 1358 -294 211 -14 457 -3 737 32 760 95 1467 394 2070 875 173 138
506 471 642 641 523 658 826 1417 899 2252 17 199 6 685 -20 876 -69 503 -225
990 -457 1421 -92 171 -128 216 -189 240 -151 57 -308 -73 -377 -311 -20 -70
-23 -102 -23 -255 0 -198 6 -234 86 -519 56 -200 120 -504 145 -696 22 -162
25 -598 6 -755 -63 -513 -215 -933 -488 -1347 -87 -132 -223 -306 -258 -328
-81 -53 -166 -26 -166 53 0 27 42 108 119 232 188 301 303 589 347 868 20 129
15 342 -11 442 -40 154 -136 295 -232 340 -69 32 -158 26 -210 -16 -52 -42
-71 -80 -147 -289 -169 -468 -333 -808 -541 -1120 -112 -168 -198 -277 -325
-408 -164 -172 -303 -284 -630 -507 -229 -156 -290 -201 -388 -288 -157 -139
-271 -322 -331 -531 -48 -166 -69 -166 -115 -1 -29 103 -96 252 -148 328 -52
76 -204 227 -307 305 -53 40 -175 127 -271 192 -302 205 -430 306 -589 466
-249 250 -444 537 -641 942 -109 225 -171 374 -270 648 -38 106 -79 202 -95
223 -97 127 -282 94 -390 -70 -82 -123 -117 -260 -117 -460 1 -334 119 -680
376 -1094 86 -139 96 -160 96 -209 0 -48 -28 -75 -76 -74 -58 2 -108 41 -195
153 -335 430 -538 902 -620 1435 -30 198 -37 591 -15 802 28 262 61 418 195
929 92 347 52 674 -102 841 -74 80 -183 113 -262 79z"/>
</g>
</svg>
